<svg xmlns="http://www.w3.org/2000/svg" width="47" height="102" viewBox="0 0 47 102">
  <g id="Group_636" data-name="Group 636" transform="translate(7995 -3396)" opacity="0.1">
    <rect id="Rectangle_1711" data-name="Rectangle 1711" width="47" height="102" transform="translate(-7995 3396)" fill="rgba(255,255,255,0)"/>
    <g id="Path_614" data-name="Path 614" transform="translate(-8601.988 3274.432)" fill="none">
      <path d="M646.832,131.866q-15.708-3.29-31.412-6.6.013,21.824,0,43.647,15.705-3.3,31.412-6.6-.012-15.227,0-30.454m-15.521-1.76a13.393,13.393,0,0,1,7.066,5.394c-1.518,1.535-3.044,3.063-4.555,4.607-1.07-1.946-2.441-4.029-4.658-4.755a3.881,3.881,0,0,0-4.983,2.791,6.763,6.763,0,0,0,3.047,6.645c3.761,2.956,8.255,4.922,11.661,8.34a16.664,16.664,0,0,1,4.565,8.468c-7.17,1.463-14.336,2.944-21.509,4.394-.4-2.019-.825-4.035-1.246-6.051,4.581-.928,9.158-1.88,13.736-2.822-4.114-3.676-9.325-5.8-13.659-9.173a10.631,10.631,0,0,1-3.306-11.111C619.147,131.19,625.934,128.554,631.311,130.106Z" stroke="none"/>
      <path d="M 615.4200439453125 125.2699890136719 C 615.4290161132812 139.8191680908203 615.4290161132812 154.3673706054688 615.4200439453125 168.9165496826172 C 625.8901977539062 166.7165222167969 636.3602905273438 164.5134887695312 646.8323974609375 162.3204650878906 C 646.824462890625 152.1693420410156 646.824462890625 142.0171966552734 646.8323974609375 131.8660736083984 C 636.3602905273438 129.6730346679688 625.8901977539062 127.4700164794922 615.4200439453125 125.2699890136719 M 633.8222045898438 140.107177734375 C 632.7522583007812 138.1611633300781 631.3812255859375 136.078125 629.1641845703125 135.3521118164062 C 627.099853515625 134.6540222167969 624.5830688476562 135.943115234375 624.18115234375 138.1431427001953 C 623.6860961914062 140.7332000732422 625.1030883789062 143.3482208251953 627.2282104492188 144.7882385253906 C 630.9891967773438 147.7442626953125 635.4832763671875 149.7102966308594 638.8893432617188 153.1283416748047 C 641.2373657226562 155.3983764648438 642.7673950195312 158.4214172363281 643.4544067382812 161.5964660644531 C 636.2843017578125 163.0594635009766 629.1181640625 164.5404815673828 621.9451293945312 165.9905090332031 C 621.5420532226562 163.9714965820312 621.1201171875 161.9554443359375 620.6990966796875 159.9394226074219 C 625.2802124023438 159.0114135742188 629.8572387695312 158.0594024658203 634.435302734375 157.1174011230469 C 630.3212280273438 153.4413299560547 625.110107421875 151.3133087158203 620.776123046875 147.9442596435547 C 617.5750122070312 145.3462371826172 616.280029296875 140.7481842041016 617.4700317382812 136.8331451416016 C 619.1470336914062 131.1901092529297 625.9342041015625 128.5540008544922 631.3112182617188 130.1060485839844 C 634.2562255859375 130.9150695800781 636.63427734375 133.0621032714844 638.3773193359375 135.5001220703125 C 636.8593139648438 137.0351409912109 635.3333129882812 138.5631561279297 633.8222045898438 140.107177734375 M 614.4192504882812 124.0378723144531 L 622.6822509765625 125.7744293212891 C 630.6643676757812 127.4521636962891 638.918212890625 129.1870269775391 647.037353515625 130.8872985839844 L 647.8330688476562 131.0539245605469 L 647.8323974609375 131.8668518066406 C 647.8245239257812 141.9703674316406 647.8245239257812 152.2161712646484 647.8323974609375 162.3196868896484 L 647.8330688476562 163.1325988769531 L 647.037353515625 163.2992248535156 C 638.9147338867188 165.000244140625 630.6573486328125 166.7358551025391 622.6717529296875 168.4143218994141 L 614.4192504882812 170.148681640625 L 614.4200439453125 168.9159240722656 C 614.428955078125 154.4354705810547 614.428955078125 139.7510681152344 614.4200439453125 125.2706146240234 L 614.4192504882812 124.0378723144531 Z M 637.0595092773438 135.4098663330078 C 635.7230224609375 133.7144165039062 633.7054443359375 131.8008117675781 631.0463256835938 131.0703277587891 L 631.033935546875 131.0668334960938 C 630.1143798828125 130.8014373779297 629.1378784179688 130.6668548583984 628.1314697265625 130.6668548583984 C 624.381591796875 130.6668548583984 619.7457885742188 132.6856384277344 618.4285888671875 137.1180114746094 L 618.4268188476562 137.1239624023438 C 617.3331298828125 140.7221069335938 618.55517578125 144.8480834960938 621.3985595703125 147.1614990234375 C 623.2753295898438 148.6192779541016 625.3812255859375 149.8750305175781 627.41796875 151.0895843505859 C 630.0372314453125 152.6515197753906 632.7456665039062 154.2666320800781 635.1016235351562 156.3717041015625 L 636.5839233398438 157.6962432861328 L 634.6368408203125 158.0968780517578 C 633.3023681640625 158.3714599609375 631.968017578125 158.6468963623047 630.6336059570312 158.9223480224609 C 627.7660522460938 159.5142517089844 624.810546875 160.1243133544922 621.883544921875 160.7194213867188 C 622.1649780273438 162.0678558349609 622.4508666992188 163.4428405761719 622.7280883789062 164.8118133544922 C 626.9451904296875 163.9576263427734 631.2117309570312 163.0829620361328 635.3477172851562 162.2350463867188 C 637.6051025390625 161.7722778320312 639.929443359375 161.2957611083984 642.2337646484375 160.8250427246094 C 641.4732666015625 158.1008911132812 640.0601806640625 155.6511840820312 638.1942749023438 153.8472900390625 L 638.1809692382812 153.8341979980469 C 636.232421875 151.8787841796875 633.9329223632812 150.4304656982422 631.4984130859375 148.8971252441406 C 629.8727416992188 147.8732299804688 628.1920166015625 146.8145904541016 626.6373291015625 145.5957336425781 C 624.045654296875 143.8232421875 622.66455078125 140.7589111328125 623.1983642578125 137.9584197998047 C 623.5966796875 135.7937774658203 625.6552124023438 134.1619262695312 627.9890747070312 134.1619262695312 C 628.5030517578125 134.1619262695312 629.0045776367188 134.2431030273438 629.4797973632812 134.4032135009766 C 631.5474853515625 135.0820770263672 632.9486083984375 136.7324676513672 634.027587890625 138.4710998535156 C 634.7479248046875 137.7401580810547 635.4710693359375 137.0112457275391 636.1773071289062 136.2993774414062 C 636.471435546875 136.0029144287109 636.7655639648438 135.7064514160156 637.0595092773438 135.4098663330078 Z" stroke="none" fill="#ff4b57"/>
    </g>
    <g id="Path_615" data-name="Path 615" transform="translate(-8601.988 3325.003)" fill="none">
      <path d="M615.42,131.866q15.708-3.29,31.412-6.6-.013,21.824,0,43.647-15.705-3.3-31.412-6.6.012-15.227,0-30.454m15.521-1.76a13.393,13.393,0,0,0-7.066,5.394c1.518,1.535,3.044,3.063,4.555,4.607,1.07-1.946,2.441-4.029,4.658-4.755a3.881,3.881,0,0,1,4.983,2.791,6.763,6.763,0,0,1-3.047,6.645c-3.761,2.956-8.255,4.922-11.661,8.34A16.663,16.663,0,0,0,618.8,161.6c7.17,1.463,14.336,2.944,21.509,4.394.4-2.019.825-4.035,1.246-6.051-4.581-.928-9.158-1.88-13.736-2.822,4.114-3.676,9.325-5.8,13.659-9.173a10.631,10.631,0,0,0,3.306-11.111C643.105,131.19,636.318,128.554,630.941,130.106Z" stroke="none"/>
      <path d="M 646.8323974609375 125.2699890136719 C 636.3622436523438 127.4700164794922 625.8922119140625 129.6730346679688 615.4200439453125 131.8660736083984 C 615.427978515625 142.0171813964844 615.427978515625 152.1693267822266 615.4200439453125 162.3204498291016 C 625.8922119140625 164.5134582519531 636.3622436523438 166.7164916992188 646.8323974609375 168.9165191650391 C 646.823486328125 154.3673553466797 646.823486328125 139.8191528320312 646.8323974609375 125.2699890136719 M 640.3073120117188 165.990478515625 C 633.1343383789062 164.5404510498047 625.9681396484375 163.0594482421875 618.798095703125 161.596435546875 C 619.4850463867188 158.4214019775391 621.0150756835938 155.3983764648438 623.3630981445312 153.1283264160156 C 626.7691650390625 149.7102813720703 631.2632446289062 147.7442474365234 635.0242309570312 144.7882385253906 C 637.1493530273438 143.3482055664062 638.5663452148438 140.7331848144531 638.0713500976562 138.1431427001953 C 637.6693115234375 135.9431304931641 635.1524047851562 134.6540832519531 633.0882568359375 135.3521118164062 C 630.8712158203125 136.078125 629.5001831054688 138.1611633300781 628.4302368164062 140.1071624755859 C 626.919189453125 138.5631561279297 625.3931274414062 137.0351409912109 623.8751220703125 135.5001220703125 C 625.6181640625 133.0621032714844 627.9962158203125 130.9150695800781 630.9412841796875 130.1060485839844 C 636.3182373046875 128.5540161132812 643.1053466796875 131.1900939941406 644.7824096679688 136.8331451416016 C 645.972412109375 140.7481689453125 644.6774291992188 145.3462219238281 641.476318359375 147.9442443847656 C 637.142333984375 151.3132934570312 631.9312744140625 153.4413146972656 627.8171997070312 157.1173858642578 C 632.395263671875 158.0594024658203 636.9722290039062 159.0113983154297 641.5533447265625 159.9394226074219 C 641.1323852539062 161.9554138183594 640.7103881835938 163.9714660644531 640.3073120117188 165.990478515625 M 647.8331909179688 124.0378723144531 L 647.8323974609375 125.2705993652344 C 647.8235473632812 139.7510528564453 647.8235473632812 154.4354553222656 647.8323974609375 168.9159088134766 L 647.8331909179688 170.1486511230469 L 639.58154296875 168.4144744873047 C 631.595703125 166.7359619140625 623.3380126953125 165.0002746582031 615.215087890625 163.2992248535156 L 614.4193725585938 163.1325988769531 L 614.4200439453125 162.3196716308594 C 614.4279174804688 152.2161560058594 614.4279174804688 141.9703521728516 614.4200439453125 131.8668518066406 L 614.4193725585938 131.0539245605469 L 615.215087890625 130.8872985839844 C 623.3310546875 129.1876983642578 631.5816650390625 127.4535064697266 639.5606079101562 125.7764434814453 L 647.8331909179688 124.0378723144531 Z M 640.8538818359375 147.1614685058594 C 643.697265625 144.8480529785156 644.9193115234375 140.7221069335938 643.8256225585938 137.1239624023438 L 643.8238525390625 137.1180114746094 C 642.5067138671875 132.6858367919922 637.870849609375 130.6670074462891 634.1209716796875 130.6668548583984 C 633.1144409179688 130.6668548583984 632.1380615234375 130.8014373779297 631.2186279296875 131.0668334960938 L 631.2061767578125 131.0703277587891 C 628.5470581054688 131.8008117675781 626.5294189453125 133.7144165039062 625.1929321289062 135.4098663330078 C 625.4871215820312 135.7067260742188 625.781494140625 136.0034027099609 626.0758666992188 136.3001403808594 C 626.7819213867188 137.0117645263672 627.5047607421875 137.7403869628906 628.224853515625 138.4710845947266 C 629.3038330078125 136.7324523925781 630.7050170898438 135.0820770263672 632.7726440429688 134.4032135009766 C 633.247802734375 134.2431030273438 633.7493286132812 134.1619262695312 634.2633666992188 134.1619262695312 C 636.5975952148438 134.1618347167969 638.656494140625 135.7941284179688 639.0543212890625 137.9594421386719 C 639.5875854492188 140.7598114013672 638.20654296875 143.8236083984375 635.6149291992188 145.5958251953125 C 634.060302734375 146.8146820068359 632.3796997070312 147.8732147216797 630.7540283203125 148.8971099853516 C 628.3195190429688 150.4304504394531 626.02001953125 151.8787689208984 624.0714721679688 153.8341827392578 L 624.0581665039062 153.8472595214844 C 622.1922607421875 155.6511993408203 620.7791748046875 158.1009063720703 620.0187377929688 160.8250122070312 C 622.3195190429688 161.2950286865234 624.6405029296875 161.7708435058594 626.8944702148438 162.2329254150391 C 631.0338745117188 163.0815277099609 635.3037719726562 163.9568939208984 639.5243530273438 164.8117828369141 C 639.8016357421875 163.4426422119141 640.0875244140625 162.067626953125 640.368896484375 160.7194213867188 C 637.4405517578125 160.1240234375 634.4837646484375 159.5137023925781 631.6148681640625 158.9215087890625 C 630.2817993164062 158.6463317871094 628.9487915039062 158.3711700439453 627.6156616210938 158.0968627929688 L 625.6685791015625 157.6962127685547 L 627.15087890625 156.3716888427734 C 629.5068359375 154.2666168212891 632.2152709960938 152.6514892578125 634.8345336914062 151.0895538330078 C 636.8712768554688 149.8750152587891 638.9771118164062 148.6192321777344 640.8538818359375 147.1614685058594 Z" stroke="none" fill="#ff4b57"/>
    </g>
  </g>
</svg>
