<svg id="Group_78569" data-name="Group 78569" xmlns="http://www.w3.org/2000/svg" width="281" height="281" viewBox="0 0 281 281">
  <rect id="Rectangle_6968" data-name="Rectangle 6968" width="281" height="281" fill="rgba(255,255,255,0)"/>
  <g id="Group_73024" data-name="Group 73024" transform="translate(0 25.793)">
    <path id="Path_127589" data-name="Path 127589" d="M216.394.122H78.56V0H13.822A13.863,13.863,0,0,0,0,13.823V216.258a13.863,13.863,0,0,0,13.822,13.822h61.6v.122h25.41c1.55,1.052-1.68,4.035-1.68,10.123,0,8.486,7.534,15.365,16.02,15.365s16.02-6.879,16.02-15.365c0-5.933-3.831-9.062-2.483-10.123h87.682a13.863,13.863,0,0,0,13.822-13.822V13.944A13.863,13.863,0,0,0,216.394.122Z" transform="translate(255.69) rotate(90)" fill="#c8cdd7"/>
  </g>
</svg>
