<svg xmlns="http://www.w3.org/2000/svg" width="281" height="281" viewBox="0 0 281 281">
  <g id="Group_78570" data-name="Group 78570" transform="translate(0.341)">
    <rect id="Rectangle_6969" data-name="Rectangle 6969" width="281" height="281" transform="translate(-0.341)" fill="rgba(255,255,255,0)"/>
    <g id="Group_73025" data-name="Group 73025" transform="translate(25.788 25.762)">
      <path id="Path_127590" data-name="Path 127590" d="M96.724,863.437H299.16a13.863,13.863,0,0,1,13.822,13.822v83.093a20.494,20.494,0,0,0-6.54-1.084c-10.058,0-18.555,8.8-18.555,19.21s8.5,19.21,18.555,19.21a17.547,17.547,0,0,0,6.54-1.3V1079.7a13.863,13.863,0,0,1-13.822,13.822H96.724A13.863,13.863,0,0,1,82.9,1079.7V877.259a13.863,13.863,0,0,1,13.822-13.822Z" transform="translate(-82.9 -863.437)" fill="#c8cdd7"/>
    </g>
  </g>
</svg>
