<svg xmlns="http://www.w3.org/2000/svg" width="116.986" height="114.689" viewBox="0 0 116.986 114.689">
  <path id="Subtraction_9" data-name="Subtraction 9" d="M59.617,114.689h0a57.431,57.431,0,0,1-30.918-9.078,35.571,35.571,0,0,1-9.987,3.135,57.391,57.391,0,0,1-9.636.77A62.78,62.78,0,0,1,0,108.895a51.087,51.087,0,0,0,7.291-3.169c3.575-1.9,8.309-5.022,10.563-9.124a57.312,57.312,0,1,1,41.764,18.087Zm-8.1-66.642a4.529,4.529,0,0,1,.831.077,3.542,3.542,0,0,1,1.718.8,3.255,3.255,0,0,1,.815,1.765,10.907,10.907,0,0,1-.553,3.5L49.791,71.116c-.939,3.4-1.327,5.9-1.152,7.425a8.544,8.544,0,0,0,2.7,4.915A12.99,12.99,0,0,0,57,85.891c.273.021.692.049,1.177.049a8.1,8.1,0,0,0,5.276-1.658c2.085-1.7,3.474-5.554,4.067-7.2l-1.6-.43C65,78.8,64.136,80.168,63.35,80.712a3,3,0,0,1-1.716.583,2.728,2.728,0,0,1-.713-.1,3.139,3.139,0,0,1-2.2-1.813c-.4-.913-.284-2.553.338-4.873l7.789-29.065-1.525-.41L48.743,46.607l.116,1.492c.608-.032,2.117-.05,2.507-.05ZM58,26a8,8,0,1,0,8,8A8.009,8.009,0,0,0,58,26Z" fill="#fff"/>
</svg>
