<svg xmlns="http://www.w3.org/2000/svg" xmlns:xlink="http://www.w3.org/1999/xlink" width="176.986" height="174.689" viewBox="0 0 176.986 174.689">
  <defs>
    <filter id="Subtraction_9" x="0" y="0" width="176.986" height="174.689" filterUnits="userSpaceOnUse">
      <feOffset dy="5" input="SourceAlpha"/>
      <feGaussianBlur stdDeviation="10" result="blur"/>
      <feFlood flood-opacity="0.2"/>
      <feComposite operator="in" in2="blur"/>
      <feComposite in="SourceGraphic"/>
    </filter>
  </defs>
  <g id="Group_777" data-name="Group 777" transform="translate(337.486 -1604.311)">
    <ellipse id="Ellipse_67" data-name="Ellipse 67" cx="47" cy="46.5" rx="47" ry="46.5" transform="translate(-296 1643)" fill="#cacaca"/>
    <g transform="matrix(1, 0, 0, 1, -337.49, 1604.31)" filter="url(#Subtraction_9)">
      <path id="Subtraction_9-2" data-name="Subtraction 9" d="M59.617,114.689h0a57.431,57.431,0,0,1-30.918-9.078,35.571,35.571,0,0,1-9.987,3.135,57.391,57.391,0,0,1-9.636.77A62.78,62.78,0,0,1,0,108.895a51.087,51.087,0,0,0,7.291-3.169c3.575-1.9,8.309-5.022,10.563-9.124a57.312,57.312,0,1,1,41.764,18.087Zm-10.1-66.642a4.542,4.542,0,0,1,.831.077,3.542,3.542,0,0,1,1.718.8,3.247,3.247,0,0,1,.815,1.765,10.906,10.906,0,0,1-.552,3.5L47.791,71.116c-.939,3.4-1.327,5.9-1.152,7.425a8.108,8.108,0,0,0,2.384,4.592,12.113,12.113,0,0,0,8.127,3.236c.144.011.3.017.459.017a9.557,9.557,0,0,0,5.844-2.1c2.085-1.7,3.474-5.554,4.067-7.2l-1.6-.43C65,78.8,64.136,80.168,63.35,80.712a3,3,0,0,1-1.716.583,2.728,2.728,0,0,1-.713-.1,3.139,3.139,0,0,1-2.2-1.813c-.4-.913-.284-2.553.338-4.873l7.789-29.065-1.525-.41-18.58,1.571.116,1.492c.607-.032,2.117-.05,2.507-.05ZM59.5,27A7.5,7.5,0,1,0,67,34.5,7.508,7.508,0,0,0,59.5,27Z" transform="translate(30 25)" fill="#fff"/>
    </g>
  </g>
</svg>
