<svg xmlns="http://www.w3.org/2000/svg" width="124.537" height="124.372" viewBox="0 0 124.537 124.372">
  <g id="Group_51" data-name="Group 51" transform="translate(-510.911 178.929)">
    <g id="Group_50" data-name="Group 50" transform="translate(5 6)">
      <path id="Path_629" data-name="Path 629" d="M630.442-121.94c-.459,34.124-28.613,61.778-62.486,61.378-34.6-.409-62.522-28.75-62.039-62.966.48-34.051,28.737-61.8,62.521-61.4C603.05-184.513,630.9-156.218,630.442-121.94ZM529.627-135.775c5.411-8.274,12.67-14.043,21.229-18.413,8.237-4.206,9.87-10.547,4.886-18.372a4.788,4.788,0,0,0-4.23-1.6c-17.575,5.988-29.521,17.679-35.122,35.51a4.551,4.551,0,0,0,.242,3.577c3.28,4.179,7.019,8.006,10.185,12.263,1.925,2.589,4.161,5.652,4.393,8.647.474,6.1,3.045,10.555,6.431,15.569,4.22,6.249,5.973,14.143,8.924,21.272a66.3,66.3,0,0,0,3.661,6.492c1.252-4,1.576-6.736,2.877-8.886,5.233-8.647,7.176-19.378,16.133-25.687a2.3,2.3,0,0,0,.549-.818c2.045-3.791,1.31-5.267-2.9-6.572a11.948,11.948,0,0,1-4.789-2.436c-7.066-6.93-14.868-8.456-24.074-4.513-1.7.729-6.364-.992-6.339-1.351.35-5.035-3.839-7.236-5.957-10.688-.966-1.573-.746-3.871-1.245-6.963Zm77.024,38.556c4.74-8.491,8.311-15.854,12.829-22.584,2.38-3.547,3.13-6.9,2.248-10.64a107.082,107.082,0,0,0-4.469-14.593c-.61-1.554-2.691-2.974-4.406-3.556-2.806-.952-4.16-1.936-3.42-5.286a7.48,7.48,0,0,0-1.373-5.758c-6.843-7.756-15.6-12.655-25.5-15.385-1.489-.411-3.456.907-5.2,1.425,9.237,2.2,9.456,2.609,7.476,11.674-.565,2.585-.634,5.278-.973,8.3l6.7-1.952c0,1.463.392,2.744-.072,3.264a32.408,32.408,0,0,1-5.292,4.9c-5.782,4.116-8.85,11.3-6.984,17.8,1.84,6.4,7.624,4.93,12.3,5.942,2.871.622,6.324,1.771,7.995,3.883,2.009,2.538,2.37,6.362,3.5,9.609C603.446-106.08,604.939-102,606.651-97.219Z" fill="#fff"/>
      <path id="Path_630" data-name="Path 630" d="M529.627-135.775l-5.151-2.967c.5,3.092.279,5.39,1.245,6.963,2.118,3.452,6.307,5.653,5.957,10.688-.025.359,4.637,2.08,6.339,1.351,9.206-3.943,17.008-2.417,24.074,4.513a11.948,11.948,0,0,0,4.789,2.436c4.215,1.305,4.95,2.781,2.9,6.572a2.3,2.3,0,0,1-.549.818c-8.957,6.309-10.9,17.04-16.133,25.687-1.3,2.15-1.625,4.89-2.877,8.886a66.3,66.3,0,0,1-3.661-6.492c-2.951-7.129-4.7-15.023-8.924-21.272-3.386-5.014-5.957-9.467-6.431-15.569-.232-2.995-2.468-6.058-4.393-8.647-3.166-4.257-6.905-8.084-10.185-12.263a4.551,4.551,0,0,1-.242-3.577c5.6-17.831,17.547-29.522,35.122-35.51a4.788,4.788,0,0,1,4.23,1.6c4.984,7.825,3.351,14.166-4.886,18.372C542.3-149.818,535.038-144.049,529.627-135.775Z"/>
      <path id="Path_631" data-name="Path 631" d="M606.651-97.219c-1.712-4.777-3.205-8.861-4.638-12.965-1.133-3.247-1.494-7.071-3.5-9.609-1.671-2.112-5.124-3.261-7.995-3.883-4.672-1.012-10.456.462-12.3-5.942-1.866-6.5,1.2-13.684,6.984-17.8a32.408,32.408,0,0,0,5.292-4.9c.464-.52.072-1.8.072-3.264l-6.7,1.952c.339-3.019.408-5.712.973-8.3,1.98-9.065,1.761-9.471-7.476-11.674,1.745-.518,3.712-1.836,5.2-1.425,9.9,2.73,18.656,7.629,25.5,15.385a7.48,7.48,0,0,1,1.373,5.758c-.74,3.35.614,4.334,3.42,5.286,1.715.582,3.8,2,4.406,3.556a107.082,107.082,0,0,1,4.469,14.593c.882,3.741.132,7.093-2.248,10.64C614.962-113.073,611.391-105.71,606.651-97.219Z"/>
    </g>
  </g>
</svg>
