<svg xmlns="http://www.w3.org/2000/svg" width="328.493" height="362.475" viewBox="0 0 328.493 362.475">
  <path id="office_1_" data-name="office (1)" d="M166.247,0a28.318,28.318,0,1,0,28.318,28.318A28.382,28.382,0,0,0,166.247,0Zm-20.6,57.278a30.434,30.434,0,0,0-30.375,30.376V124.6H217.22V87.654a30.434,30.434,0,0,0-30.376-30.376h-2.987l-17.61,17.611L148.636,57.278Zm14.934,78.65v22.655H75.65A28.393,28.393,0,0,0,47.309,186.9v39.646H58.637V186.9A16.842,16.842,0,0,1,75.65,169.91h84.933v56.637H171.91V169.91h85.154A16.861,16.861,0,0,1,274.1,186.9v39.646h11.327V186.9a28.412,28.412,0,0,0-28.363-28.318H171.91V135.928ZM52.973,237.874a27.632,27.632,0,1,0,27.632,27.632A27.7,27.7,0,0,0,52.973,237.874Zm113.273,0a27.632,27.632,0,1,0,27.632,27.632A27.7,27.7,0,0,0,166.247,237.874Zm113.273,0a27.632,27.632,0,1,0,27.632,27.632A27.7,27.7,0,0,0,279.52,237.874ZM32.376,295.152A30.377,30.377,0,0,0,2.111,324.4H2v38.075H103.946V324.4h-.111A30.377,30.377,0,0,0,73.57,295.153Zm113.273,0A30.377,30.377,0,0,0,115.384,324.4h-.111v38.075H217.22V324.4h-.111a30.377,30.377,0,0,0-30.265-29.248Zm113.273,0A30.377,30.377,0,0,0,228.657,324.4h-.111v38.075H330.493V324.4h-.111a30.377,30.377,0,0,0-30.265-29.248Z" transform="translate(-2)" fill="#ff4d59"/>
</svg>
