<svg version="1.0" xmlns="http://www.w3.org/2000/svg"
 width="344.000000pt" height="344.000000pt" viewBox="0 0 344.000000 344.000000"
 preserveAspectRatio="xMidYMid meet">

<g transform="translate(0.000000,344.000000) scale(0.100000,-0.100000)"
fill="#c5c5c5" stroke="none">
<path d="M2493 3411 c-56 -35 -80 -118 -52 -174 6 -12 115 -127 242 -254 l232
-233 -1408 0 c-1536 0 -1439 4 -1486 -56 -16 -20 -21 -41 -21 -82 0 -50 3 -58
39 -93 l39 -39 1418 0 1419 0 -226 -227 c-125 -126 -234 -239 -243 -253 -35
-53 -10 -147 48 -185 28 -19 104 -22 133 -6 10 5 197 189 415 408 l398 398
-404 404 -404 404 -54 4 c-41 3 -60 -1 -85 -16z"/>
<path d="M840 1643 c-16 -3 -164 -144 -433 -411 l-407 -407 392 -393 c216
-216 405 -400 420 -408 15 -8 48 -14 74 -14 41 0 51 5 85 39 34 34 39 44 39
85 0 26 -5 57 -11 69 -6 12 -115 127 -242 255 l-232 232 1408 0 c1555 0 1446
-5 1487 63 25 41 25 103 0 144 -41 68 68 63 -1487 63 l-1408 0 232 233 c127
127 236 242 242 254 6 12 11 42 11 67 0 36 -6 52 -31 80 -25 29 -87 60 -109
55 -3 -1 -16 -4 -30 -6z"/>
</g>
</svg>
