<svg xmlns="http://www.w3.org/2000/svg" width="325.79" height="381.975" viewBox="0 0 325.79 381.975">
  <g id="Group_72554" data-name="Group 72554" transform="translate(3175 2381)">
    <path id="Union_3" data-name="Union 3" d="M81.349,362.475q0-.161,0-.321V249.137H73.33V362.475h-.021c0,10.767-9.2,19.466-20.062,19.466a19.191,19.191,0,0,1-19.2-19.5c0-.087,0-.174,0-.26V140.072H29.083v93.45a14.653,14.653,0,0,1-2.784,8.544,14.993,14.993,0,0,1-4.433,4.007,14.6,14.6,0,0,1-7.426,2.092A14.489,14.489,0,0,1,0,233.521V129.878a47.049,47.049,0,0,1,2.181-14.159C7.4,99.049,21.786,87.071,40.451,87.071h14.5l1.673,1.521,16.034,14.553L61.231,137.3l15.02,35.776,16.742-36.355-12.534-33.58,17.023-14.6,1.739-1.472H114.3c18.648,0,32.687,11.979,37.795,28.649a48.569,48.569,0,0,1,2.117,14.159V233.522a14.39,14.39,0,0,1-21.858,12.55,14.958,14.958,0,0,1-4.433-4.023,14.667,14.667,0,0,1-2.792-8.527V140.072h-4.433V361.914c.005.187.008.373.008.561a19.676,19.676,0,0,1-39.35,0ZM38.1,39.268A39.263,39.263,0,1,1,77.377,78.52,39.281,39.281,0,0,1,38.1,39.268Z" transform="translate(-3089.2 -2381)"/>
    <path id="Union_2" data-name="Union 2" d="M218.148,324.785V220.111a25.05,25.05,0,0,0,7.393,1.166,25.391,25.391,0,0,0,25.285-25.446V92.188a59.659,59.659,0,0,0-1.705-14.159h40.925c21.166,0,35.744,17.177,35.744,38.351v92.864a12.941,12.941,0,0,1-12.92,13.1,13.1,13.1,0,0,1-13.114-13.1V125.5h-3.973V324.053c.01.246.014.493.014.741a17.43,17.43,0,0,1-17.5,17.469,17.644,17.644,0,0,1-17.75-17.469v-.009h0V223.224h-7.2V323.417q.053.678.053,1.368a17.625,17.625,0,0,1-35.249,0Zm-145.732,0q0-.642.046-1.272V223.224H65.254V324.785h0a17.626,17.626,0,0,1-35.25,0c0-.31.008-.619.024-.926V125.5H26.033v83.741a13.1,13.1,0,0,1-13.1,13.1A12.949,12.949,0,0,1,0,209.243V116.379C0,95.2,14.577,78.029,35.776,78.029h41a57.767,57.767,0,0,0-1.81,14.159V195.832h0a25.384,25.384,0,0,0,25.277,25.447,25.093,25.093,0,0,0,7.426-1.183v104.69h0a17.626,17.626,0,0,1-35.25,0ZM245.855,68.406a49.844,49.844,0,0,0-22.816-24.376,35.632,35.632,0,0,1-1.247-8.85,35.177,35.177,0,1,1,35.164,35.173A34.758,34.758,0,0,1,245.855,68.406ZM33.668,35.181a35.177,35.177,0,1,1,70.354,0,34.58,34.58,0,0,1-1.4,9.252,51.325,51.325,0,0,0-22.39,23.893A34.848,34.848,0,0,1,33.668,35.181Z" transform="translate(-3175 -2343.309)"/>
  </g>
</svg>
