<svg xmlns="http://www.w3.org/2000/svg" width="710" height="710" viewBox="0 0 710 710">
  <g id="Group_78569" data-name="Group 78569" transform="translate(13431 -1162)">
    <rect id="Rectangle_6968" data-name="Rectangle 6968" width="710" height="710" transform="translate(-13431 1162)" fill="rgba(255,255,255,0)"/>
    <g id="Group_73024" data-name="Group 73024" transform="translate(-13431 1227.076)">
      <path id="Path_127589" data-name="Path 127589" d="M545.973.308H198.212V0H34.874A34.977,34.977,0,0,0,0,34.875V545.632a34.977,34.977,0,0,0,34.874,34.874H190.3v.307h64.112c3.91,2.655-4.238,10.18-4.238,25.54,0,21.411,19.009,38.767,40.419,38.767s40.419-17.356,40.419-38.767c0-14.968-9.665-22.865-6.265-25.54H545.973a34.977,34.977,0,0,0,34.874-34.874V35.182A34.977,34.977,0,0,0,545.973.308Z" transform="translate(645.12) rotate(90)" fill="#ff4b57"/>
    </g>
  </g>
</svg>
