<svg xmlns="http://www.w3.org/2000/svg" width="710" height="710" viewBox="0 0 710 710">
  <g id="Group_78570" data-name="Group 78570" transform="translate(14212 -1162)">
    <rect id="Rectangle_6969" data-name="Rectangle 6969" width="710" height="710" transform="translate(-14212 1162)" fill="rgba(255,255,255,0)"/>
    <g id="Group_73025" data-name="Group 73025" transform="translate(-14147 1227)">
      <path id="Path_127590" data-name="Path 127590" d="M117.778,863.437H628.537a34.976,34.976,0,0,1,34.874,34.874v209.647a51.719,51.719,0,0,0-16.5-2.735c-25.376,0-46.815,22.2-46.815,48.467s21.439,48.467,46.815,48.467a44.269,44.269,0,0,0,16.5-3.288v210.2a34.976,34.976,0,0,1-34.874,34.874H117.778A34.977,34.977,0,0,1,82.9,1409.07V898.311a34.977,34.977,0,0,1,34.874-34.874Z" transform="translate(-82.904 -863.437)" fill="#ff4b57"/>
    </g>
  </g>
</svg>
