<?xml version="1.0" standalone="no"?>
<!DOCTYPE svg PUBLIC "-//W3C//DTD SVG 20010904//EN"
 "http://www.w3.org/TR/2001/REC-SVG-20010904/DTD/svg10.dtd">
<svg version="1.0" xmlns="http://www.w3.org/2000/svg"
 width="958.000000pt" height="853.000000pt" viewBox="0 0 958.000000 853.000000"
 preserveAspectRatio="xMidYMid meet">
<metadata>
Created by potrace 1.16, written by Peter Selinger 2001-2019
</metadata>
<g transform="translate(0.000000,853.000000) scale(0.100000,-0.100000)"
fill="#000000" stroke="none">
<path d="M4615 8439 c-177 -22 -373 -92 -532 -190 -106 -66 -298 -252 -365
-354 -25 -38 -803 -1382 -1729 -2985 -1045 -1811 -1697 -2949 -1720 -3006
-193 -472 -90 -1012 265 -1382 150 -156 318 -263 521 -331 196 -66 -83 -61
3725 -61 3771 0 3520 -4 3712 56 118 37 270 114 368 188 478 359 654 985 431
1530 -35 84 -3336 5819 -3449 5991 -69 105 -239 272 -351 344 -260 167 -571
238 -876 200z m349 -1768 c162 -57 280 -173 345 -339 l26 -67 3 -1518 c3
-1676 6 -1580 -61 -1716 -40 -82 -140 -184 -222 -228 -223 -117 -480 -80 -656
96 -72 72 -128 174 -148 269 -8 37 -11 502 -11 1550 0 1645 -3 1557 61 1685
46 90 154 194 249 240 41 20 98 40 125 46 75 15 220 6 289 -18z m-63 -4501
c96 -18 208 -81 282 -159 138 -146 186 -326 137 -515 -27 -106 -63 -168 -145
-252 -220 -223 -573 -216 -787 15 -280 302 -142 788 257 902 68 20 177 24 256
9z"/>
</g>
</svg>
