<svg xmlns="http://www.w3.org/2000/svg" enable-background="new 0 0 100 100" viewBox="0 0 100 100"><path d="M81.7,78l-4.9-8.7c-2.7-4.8-8.8-6.5-13.6-3.8L58,56.3l19.4-34.5c3.2-5.8,1.2-13.1-4.6-16.3c-0.5-0.3-1-0.3-1.5-0.2
	c-0.5,0.1-1,0.5-1.2,0.9L50,42L29.8,6.2c-0.5-1-1.8-1.3-2.7-0.8c-2.8,1.6-4.8,4.1-5.7,7.2c-0.9,3.1-0.5,6.3,1.1,9.1L42,56.3
	l-5.2,9.2c-1.5-0.9-3.2-1.3-4.9-1.3c-3.5,0-6.9,1.8-8.7,5.1L18.3,78c-1.3,2.3-1.6,5-0.9,7.6s2.4,4.7,4.7,6l3.5,2
	c1.5,0.9,3.2,1.3,4.9,1.3c3.5,0,6.9-1.8,8.7-5.1L50,70.5l10.8,19.2c1.8,3.2,5.2,5.1,8.7,5.1c1.7,0,3.4-0.4,4.9-1.3l3.5-2
	c2.3-1.3,4-3.5,4.7-6C83.4,83,83,80.3,81.7,78z M72.6,10.1c2.6,2.5,3.2,6.4,1.4,9.7L55.7,52.2l-3.4-6.1L72.6,10.1z M35.7,87.8
	c-1.6,2.9-5.3,3.9-8.2,2.3l-3.5-2c-1.4-0.8-2.4-2.1-2.8-3.6s-0.2-3.2,0.5-4.6l4.9-8.7c1.1-2,3.1-3.1,5.2-3.1c1,0,2,0.2,2.9,0.8
	l1.8,1c0.5,0.3,1,0.3,1.5,0.2c0.5-0.1,0.9-0.5,1.2-0.9l5-8.8l3.4,6.1L35.7,87.8z M78.8,84.5c-0.4,1.5-1.4,2.8-2.8,3.6l-3.5,2
	c-2.9,1.6-6.5,0.6-8.2-2.3L26,19.8c-1-1.9-1.3-4-0.7-6.1c0.4-1.4,1.1-2.6,2.2-3.6l33.3,59c0.3,0.5,0.7,0.8,1.2,0.9s1.1,0.1,1.5-0.2
	l1.8-1c2.9-1.6,6.5-0.6,8.2,2.3l4.9,8.7C79,81.3,79.2,82.9,78.8,84.5z M34.4,77.9l-3,5.2c-0.4,0.7-1,1-1.7,1c-0.3,0-0.7-0.1-1-0.3
	c-1-0.5-1.3-1.8-0.8-2.7l2.9-5.2c0.5-1,1.8-1.3,2.7-0.8C34.6,75.7,34.9,76.9,34.4,77.9z M72,81.1c0.5,1,0.2,2.2-0.8,2.7
	c-0.3,0.2-0.7,0.3-1,0.3c-0.7,0-1.4-0.4-1.7-1l-3-5.2c-0.5-1-0.2-2.2,0.8-2.7S68.5,75,69,76L72,81.1z"/></svg>