<svg xmlns="http://www.w3.org/2000/svg" xmlns:xlink="http://www.w3.org/1999/xlink" width="416" height="416" viewBox="0 0 416 416">
  <defs>
    <clipPath id="clip-path">
      <circle id="Ellipse_1203" data-name="Ellipse 1203" cx="208" cy="208" r="208" transform="translate(-3277 -1863)" fill="none" stroke="#2a608b" stroke-width="20"/>
    </clipPath>
  </defs>
  <g id="Group_72555" data-name="Group 72555" transform="translate(3292 1341)">
    <circle id="Ellipse_1204" data-name="Ellipse 1204" cx="208" cy="208" r="208" transform="translate(-3292 -1341)" fill="#2a608b"/>
    <g id="Mask_Group_59" data-name="Mask Group 59" transform="translate(-15 522)" clip-path="url(#clip-path)">
      <path id="user_2_" data-name="user (2)" d="M402.3,378.2c-20-8.2-65.9-24.1-92.9-32.1-2.4-.7-2.7-.9-2.7-10.7,0-8.1,3.3-16.3,6.6-23.3a116.217,116.217,0,0,0,9.2-31.6c4.2-4.9,10-14.5,13.6-32.9,3.2-16.2,1.7-22.1-.4-27.6a17.715,17.715,0,0,1-.6-1.7c-.8-3.8.3-23.5,3.1-38.8,1.9-10.5-.5-32.8-14.9-51.3-9.1-11.7-26.6-26-58.5-28H247.3c-31.4,2-48.8,16.3-58,28-14.5,18.5-16.9,40.8-15,51.3,2.8,15.3,3.9,35,3.1,38.8-.2.7-.4,1.2-.6,1.8-2.1,5.5-3.7,11.4-.4,27.6,3.7,18.4,9.4,28,13.6,32.9a121.027,121.027,0,0,0,9.2,31.6c2.6,5.5,3.8,13,3.8,23.6,0,9.9-.4,10-2.6,10.7-28.1,8.3-72.6,24.3-90.4,32-8.708,6.253-86.908,57.078-21.177,80.756s268.728,11.448,332.217-12.3S402.3,378.2,402.3,378.2Z" transform="translate(-3326.472 -1917)" fill="#fff"/>
    </g>
  </g>
</svg>
