<svg width="1644" height="1289" viewBox="0 0 1644 1289" fill="none" xmlns="http://www.w3.org/2000/svg">
<path opacity="0.2" d="M853.155 1176.97V1110.31L790.28 1074.02V1145.38L731.72 1179.19V1109.08L669.924 1144.75L610.285 1110.34V1044.94C612.097 1044.46 613.435 1042.82 613.435 1040.86C613.435 1040.47 613.37 1040.1 613.262 1039.76L670.441 1006.74L670.981 1006.44V933.858L609.206 969.524L548.488 934.462L487.771 969.503L428.132 935.066V866.214L489.928 830.547L428.132 794.88V723.525L365.796 759.516L365.257 759.818V828.67L309.696 796.585C309.782 796.24 309.868 795.873 309.868 795.484C309.868 793.521 308.531 791.881 306.718 791.406V655.903L366.896 621.164L367.436 620.862V548.277L305.1 584.267L304.561 584.569V654.673L244.922 689.11L186.362 655.299L245.461 621.185L246.001 620.883V548.298L183.665 584.289L183.125 584.591V723.547L127.565 691.462C127.651 691.116 127.737 690.75 127.737 690.361C127.737 688.398 126.399 686.758 124.587 686.283V619.632L65.0345 585.217L123.594 551.405L124.673 552.031V550.78L125.752 550.154L124.673 549.528V479.425L66.9548 446.11C67.0411 445.765 67.1275 445.398 67.1275 445.009C67.1275 442.679 65.2287 440.78 62.8984 440.78C60.5681 440.78 58.6693 442.679 58.6693 445.009C58.6693 446.973 60.007 448.613 61.8195 449.087V514.487L0.00146484 550.154L60.7191 585.195L1.61974 619.33L1.08031 619.632V689.736L0.00146484 690.361L1.08031 690.987V761.091L60.6759 795.506L1.55501 829.641L1.01558 829.943V902.528L63.3515 866.537L63.8909 866.235V797.362L63.9341 797.383V726.028L120.552 693.339C121.07 693.857 121.739 694.245 122.472 694.439V761.091L182.111 795.506L123.012 829.619L122.472 829.921V900.046L65.8976 932.714C65.1208 931.937 64.0635 931.463 62.8984 931.463C60.5681 931.463 58.6693 933.361 58.6693 935.692C58.6693 937.655 60.007 939.295 61.8195 939.77V1075.19L1.57658 1109.99L1.03716 1110.29V1182.88L1.12347 1182.81V1251.73L61.8411 1286.77V1288.02L62.9199 1287.4L63.9988 1288.02V1286.77L124.177 1252.03L124.716 1251.73V1179.14L65.9191 1213.11C65.1424 1212.33 64.0851 1211.86 62.9199 1211.86C61.7332 1211.86 60.6759 1212.33 59.9207 1213.11L4.31686 1181L61.8411 1147.79V1147.86L123.638 1112.19L185.434 1147.86V1076.48L245.548 1041.76L246.087 1041.46V974.811C247.899 974.336 249.237 972.696 249.237 970.733C249.237 968.402 247.338 966.504 245.008 966.504C242.678 966.504 240.779 968.402 240.779 970.733C240.779 971.121 240.844 971.488 240.952 971.833L183.773 1004.85L183.233 1005.15V1073.98L124.738 1040.21V901.233L184.312 866.839L246.109 902.506V831.173L302.727 798.484C303.244 799.001 303.913 799.39 304.647 799.584V866.235L362.365 899.55C362.279 899.895 362.193 900.262 362.193 900.651C362.193 901.039 362.257 901.406 362.365 901.751L305.186 934.764L304.647 935.066V1075.19L248.374 1107.68C247.597 1106.6 246.346 1105.89 244.922 1105.89C242.591 1105.89 240.693 1107.79 240.693 1110.12C240.693 1112.08 242.03 1113.72 243.843 1114.2V1182.88L304.561 1147.84V1216.69L367.436 1252.98V1180.4L307.862 1146L366.443 1112.17L423.083 1144.86C422.997 1145.2 422.91 1145.57 422.91 1145.96C422.91 1148.29 424.809 1150.19 427.139 1150.19C429.47 1150.19 431.368 1148.29 431.368 1145.96C431.368 1144 430.031 1142.36 428.218 1141.88V1006.4L487.857 971.962L546.417 1005.77L487.318 1039.89L486.778 1040.19V1110.29L485.699 1110.92L486.778 1111.54V1180.4L426.6 1215.14L426.061 1215.44V1288.02L488.396 1252.03L488.936 1251.73V1182.88L547.496 1216.69V1217.94L548.575 1217.31L610.371 1252.98V1185.1C611.105 1184.91 611.774 1184.52 612.291 1184L668.888 1216.71V1288.04L729.606 1253V1253.02L791.941 1217.03L792.481 1216.73V1147.88L848.042 1179.96C847.955 1180.31 847.869 1180.68 847.869 1181.06C847.869 1183.4 849.768 1185.29 852.098 1185.29C854.428 1185.29 856.327 1183.4 856.327 1181.06C856.327 1179.08 854.968 1177.46 853.155 1176.97ZM185.369 585.821L243.929 552.01V619.61L185.369 653.421V585.821ZM61.7332 864.984L3.19486 898.795V831.194L61.7548 797.383V864.984H61.7332ZM122.537 1182.9V1250.5L63.9988 1284.31V1220.16C65.8113 1219.69 67.149 1218.05 67.149 1216.08C67.149 1215.7 67.0843 1215.33 66.9764 1214.98L122.537 1182.9ZM61.8411 1220.16V1284.31L3.28117 1250.5V1182.9L58.8419 1214.98C58.7556 1215.33 58.6693 1215.7 58.6693 1216.08C58.6693 1218.05 60.0286 1219.69 61.8411 1220.16ZM729.584 1180.42L671.046 1214.21V1146.61L729.606 1112.8V1180.42H729.584ZM608.17 1176.97C607.437 1177.16 606.768 1177.53 606.25 1178.07L550.711 1146L608.192 1112.82V1176.97H608.17ZM549.61 1075.27V1007.67L605.171 1039.76C605.085 1040.1 604.998 1040.47 604.998 1040.86C604.998 1042.82 606.336 1044.46 608.149 1044.94V1109.08L549.61 1075.27ZM608.17 1036.78C607.437 1036.97 606.768 1037.36 606.25 1037.88L550.711 1005.82L608.192 972.631V1036.78H608.17ZM548.531 1077.15L607.091 1110.96L580.487 1126.32L548.531 1144.77L489.972 1110.96L516.576 1095.6L548.531 1077.15ZM549.61 1147.88L605.171 1179.96C605.085 1180.31 604.998 1180.68 604.998 1181.06C604.998 1181.45 605.063 1181.82 605.171 1182.17L549.61 1214.25V1147.88V1147.88ZM668.888 1005.17L612.27 1037.86C611.752 1037.34 611.083 1036.95 610.35 1036.76V971.358L668.888 937.569V1005.17ZM367.501 896.573V832.424L426.061 866.235V933.836L370.478 901.751C370.565 901.406 370.651 901.039 370.651 900.651C370.651 898.687 369.313 897.047 367.501 896.573ZM367.501 904.729C368.234 904.534 368.903 904.146 369.421 903.628L424.96 935.692L367.501 968.877V904.729ZM427.118 864.358L368.558 830.547L397.277 813.976L427.118 796.757L485.678 830.569L427.118 864.358ZM367.501 761.069L426.061 727.258V794.859L367.501 828.67V761.069ZM306.783 585.821L365.343 552.01V619.61L306.783 653.421V585.821ZM304.625 724.777L285.465 735.846L246.065 758.588V690.987L304.625 657.176V724.777ZM243.908 828.691L214.628 811.797L185.348 794.902V727.301L214.628 744.196L243.908 761.091V828.691V828.691ZM185.369 657.176L243.929 690.987V758.588L214.649 741.693L185.369 724.798V657.176ZM122.494 686.283C121.76 686.477 121.091 686.844 120.574 687.384L63.9556 654.695V587.094L122.516 620.905V686.283H122.494ZM122.494 480.676V548.277L63.9341 514.466V449.066C64.6677 448.872 65.3366 448.505 65.8544 447.965L122.494 480.676ZM62.8768 516.364L121.437 550.176L63.9556 583.361L62.8768 583.987L61.7979 583.361L4.31686 550.154L62.8768 516.364ZM3.23801 620.883L61.7979 587.072V654.673L3.23801 688.484V620.883ZM3.23801 692.238L61.7979 726.05V793.65L3.23801 759.839V692.238ZM62.8768 724.172L4.31686 690.361L30.9213 674.998L62.8768 656.55L119.516 689.239C119.43 689.585 119.344 689.951 119.344 690.34C119.344 690.728 119.408 691.095 119.516 691.44L62.8768 724.172ZM124.652 694.439C125.385 694.245 126.054 693.878 126.572 693.339L183.19 726.028V793.629L124.63 759.818V694.439H124.652ZM124.652 831.173L183.212 797.362V864.962L124.652 898.773V831.173V831.173ZM63.9988 939.791C65.8113 939.317 67.149 937.677 67.149 935.713C67.149 935.325 67.0843 934.958 66.9764 934.613L122.537 902.528V970.128L63.9772 1003.94V939.791H63.9988ZM122.537 1040.23L63.9772 1074.04V1006.44L122.537 972.631V1040.23ZM61.7332 1145.36L3.19486 1179.17V1111.57L61.7548 1077.75V1145.36H61.7332ZM63.9988 1076.52L122.559 1042.71V1110.31L63.9988 1144.13V1076.52V1076.52ZM185.369 1006.42L241.987 973.732C242.505 974.25 243.174 974.638 243.908 974.832V1040.23L185.348 1074.04V1006.42H185.369ZM183.255 1077.73V1144.13L124.695 1110.31V1042.71L183.19 1076.48V1077.75L183.255 1077.73ZM243.908 898.773L185.348 864.962V797.362L214.628 814.256L243.908 831.151V898.773V898.773ZM246.065 828.691V761.091L279.531 741.779L304.625 727.301V791.449C302.813 791.924 301.475 793.564 301.475 795.528C301.475 795.916 301.54 796.283 301.648 796.628L246.065 828.691ZM306.783 864.984V799.584C307.517 799.39 308.186 799.023 308.703 798.484L365.321 831.173V896.573C364.588 896.767 363.919 897.134 363.401 897.673L306.783 864.984ZM306.783 936.339L363.401 903.65C363.919 904.168 364.588 904.556 365.321 904.75V970.15L364.242 970.776L306.761 1003.96V936.339H306.783ZM306.783 1076.52L365.343 1042.71V1110.31L306.783 1144.13V1076.52ZM365.343 1040.23L306.783 1074.04V1006.44L365.343 972.631V1040.23ZM245.979 1179.17V1114.24C247.792 1113.77 249.129 1112.13 249.129 1110.16C249.129 1110.03 249.108 1109.9 249.086 1109.77L304.517 1077.78V1145.38L245.979 1179.17ZM365.235 1249.27L306.675 1215.46V1147.86L365.235 1181.67V1249.27V1249.27ZM426.039 1141.92C425.305 1142.12 424.636 1142.49 424.119 1143.02L367.501 1110.34V1042.73L426.061 1076.55V1141.92H426.039ZM367.501 1040.23V972.631L426.061 1006.44V1074.04L367.501 1040.23ZM427.118 1004.57L368.558 970.754L427.096 936.943L428.175 937.569L485.656 970.754L427.118 1004.57ZM548.531 936.943L607.091 970.754L549.61 1003.94L548.531 1004.57L547.453 1003.94L489.972 970.754L548.531 936.943ZM488.914 1041.48L547.474 1007.67V1075.27L488.914 1109.08V1041.48V1041.48ZM486.757 1250.52L428.197 1284.33V1216.73L486.757 1182.92V1250.52V1250.52ZM488.914 1180.44V1112.84L547.474 1146.65V1214.25L488.914 1180.44ZM550.689 1216.11L606.228 1184.04C606.746 1184.56 607.415 1184.95 608.149 1185.14V1249.29L550.689 1216.11ZM610.328 1176.97V1112.82L668.888 1146.63V1214.23L613.327 1182.14C613.413 1181.8 613.5 1181.43 613.5 1181.04C613.478 1179.08 612.14 1177.46 610.328 1176.97ZM671.046 1284.31V1216.73L729.606 1182.92V1250.52L671.046 1284.31ZM790.302 1215.48L731.742 1249.29V1181.69L790.302 1147.88V1215.48ZM792.459 1145.38V1077.78L851.019 1111.59V1176.99C850.286 1177.18 849.617 1177.55 849.099 1178.09L792.459 1145.38ZM1643.5 737.96L1582.78 702.919L1641.88 668.806L1642.42 668.504V598.379L1643.5 597.753L1642.42 597.127V527.023L1582.82 492.608L1641.94 458.473L1642.48 458.171V385.586L1580.15 421.577L1579.61 421.879V490.753L1579.57 490.731V562.086L1522.95 594.775C1522.43 594.257 1521.76 593.869 1521.03 593.675V456.941L1460.31 421.9V351.797L1402.59 318.482C1402.7 318.115 1402.76 317.748 1402.76 317.36C1402.76 316.972 1402.7 316.605 1402.59 316.26L1459.77 283.247L1460.31 282.945V214.114L1518.81 247.882V389.319L1577.58 355.379C1578.36 356.155 1579.42 356.63 1580.58 356.63C1582.91 356.63 1584.81 354.731 1584.81 352.401C1584.81 350.437 1583.47 348.798 1581.66 348.323V212.906L1641.92 178.102L1642.46 177.8V105.215L1581.66 140.321V140.256L1519.88 175.923L1458.09 140.256V211.633L1397.97 246.35L1397.43 246.652V313.303C1395.62 313.778 1394.28 315.418 1394.28 317.382C1394.28 319.345 1395.62 320.985 1397.43 321.46V388.111L1458.15 423.152V492.004L1399.59 525.815V456.963L1338.87 421.922V420.671L1337.8 421.296L1336.72 420.671V421.922L1276.54 456.661L1276 456.963V529.548L1334.78 495.607C1335.55 496.384 1336.61 496.859 1337.77 496.859C1338.94 496.859 1340.02 496.384 1340.77 495.607L1397.39 528.297V669.755L1459.19 634.089L1518.83 668.504L1578.47 702.941L1519.91 736.752L1518.83 736.126V737.378L1517.75 738.003L1518.83 738.629V808.733L1579.54 843.774V909.173C1577.73 909.648 1576.39 911.288 1576.39 913.252C1576.39 915.582 1578.29 917.481 1580.62 917.481C1582.95 917.481 1584.85 915.582 1584.85 913.252C1584.85 912.863 1584.79 912.496 1584.68 912.151L1641.86 879.138L1642.4 878.836V806.251L1581.68 841.292V773.692L1643.5 737.96ZM1581.77 423.13L1640.33 389.319V456.92L1581.77 490.731V423.13ZM1640.26 667.231L1581.7 701.042V633.441L1640.26 599.63V667.231ZM1640.26 595.876L1581.7 562.065V494.464L1640.26 528.275V595.876ZM1580.64 563.942L1639.2 597.753L1612.6 613.116L1580.64 631.564L1524.01 598.875C1524.09 598.53 1524.18 598.163 1524.18 597.774C1524.18 597.386 1524.11 597.019 1524.01 596.674L1580.64 563.942ZM1518.85 528.297V593.675C1518.11 593.869 1517.45 594.257 1516.93 594.775L1489.59 578.981L1460.31 562.086V494.485L1489.59 511.38L1518.85 528.297ZM1520.96 247.882L1579.52 214.071V281.672L1520.96 315.504V247.882ZM1520.96 385.586V317.986L1579.52 284.175V348.323C1577.71 348.798 1576.37 350.437 1576.37 352.401C1576.37 352.789 1576.44 353.156 1576.55 353.501L1520.96 385.586ZM1581.77 142.759L1640.33 108.948V176.549L1581.77 210.36V142.759ZM1579.52 211.59L1520.96 245.401V177.8L1579.52 143.989V211.59ZM1460.25 143.989L1518.81 177.8V245.401L1460.31 211.633V210.36L1460.27 210.381V143.989H1460.25ZM1458.15 214.093V281.693L1401.53 314.382C1401.02 313.864 1400.35 313.476 1399.61 313.282V247.882L1458.15 214.093ZM1399.59 386.838V321.438C1400.33 321.244 1400.99 320.877 1401.51 320.338L1458.15 353.027V420.627L1399.59 386.838ZM1518.85 458.193V525.794L1489.57 508.899L1460.29 492.004V424.403L1518.85 458.193ZM1278.18 525.794V458.193L1336.74 424.382V488.53C1334.93 489.005 1333.59 490.645 1333.59 492.608C1333.59 492.997 1333.65 493.363 1333.76 493.709L1278.18 525.794ZM1338.87 488.53V424.382L1397.43 458.193V525.794L1341.87 493.73C1341.96 493.385 1342.05 493.018 1342.05 492.63C1342.05 490.645 1340.69 489.005 1338.87 488.53ZM1399.59 528.297L1458.15 494.485V562.086L1399.59 595.897V528.297ZM1399.59 598.379L1458.15 564.567V632.168L1399.59 665.979V598.379ZM1460.31 632.19V564.589L1489.59 581.484L1515.87 596.652C1515.78 596.998 1515.7 597.364 1515.7 597.753C1515.7 599.716 1517.04 601.356 1518.85 601.831V665.979L1460.31 632.19ZM1521.01 601.831C1521.74 601.637 1522.41 601.27 1522.93 600.731L1579.54 633.42V701.02L1520.98 667.209V601.831H1521.01ZM1579.57 704.775L1580.64 704.149L1581.72 704.775L1639.2 737.96L1580.64 771.771L1522.08 737.96L1579.57 704.775ZM1521.01 739.816L1579.57 773.627V841.228L1521.01 807.416V739.816ZM1640.26 809.919V877.52L1583.64 910.209C1583.13 909.691 1582.46 909.303 1581.72 909.109V843.709L1640.26 809.919ZM1281.33 387.464C1281.33 387.075 1281.26 386.708 1281.16 386.363L1338.34 353.35L1338.87 353.048V212.906L1395.17 180.411C1395.95 181.49 1397.2 182.202 1398.62 182.202C1400.95 182.202 1402.85 180.303 1402.85 177.973C1402.85 176.009 1401.51 174.369 1399.7 173.895V105.215L1338.98 140.256V71.4039L1276.11 35.1114V107.718L1335.68 142.112L1277.1 175.944L1220.46 143.255C1220.55 142.91 1220.63 142.543 1220.63 142.155C1220.63 139.825 1218.73 137.926 1216.4 137.926C1214.07 137.926 1212.17 139.825 1212.17 142.155C1212.17 144.118 1213.51 145.758 1215.32 146.233V210.381V281.736L1155.69 316.173L1097.13 282.362L1156.23 248.249L1156.76 247.947V177.778L1157.84 177.153L1156.76 176.527V107.696L1216.94 72.9575L1217.48 72.6554V0.0488281L1155.15 36.0392L1154.61 36.3413V105.193L1096.05 71.3823V70.1309L1094.97 70.7566L1033.17 35.0898V102.971C1032.44 103.165 1031.77 103.554 1031.25 104.071L974.634 71.4039V0.0704051L913.916 35.1114V35.0898L851.58 71.0803L851.041 71.3823V140.234L792.481 106.423V105.172L791.402 105.798L790.323 105.172V106.423L730.684 140.839L668.888 105.172V176.549L610.328 210.36V141.486L547.453 105.193L486.735 70.1525V141.508L430.182 174.175C429.405 173.398 428.348 172.924 427.183 172.924C424.852 172.924 422.953 174.822 422.953 177.153C422.953 179.483 424.852 181.382 427.183 181.382C428.369 181.382 429.427 180.907 430.182 180.13L486.8 212.819V284.175L549.136 248.184L549.675 247.882V179.03L608.235 212.841V284.175L667.011 250.234C667.529 250.752 668.197 251.14 668.931 251.334V317.986L731.806 354.278V284.175L792.524 319.216V246.631L732.885 212.215L791.424 178.426L853.22 214.093V142.737L911.78 108.926V246.631L851.602 281.37L851.062 281.672V354.257L909.838 320.316C910.615 321.093 911.672 321.567 912.837 321.567C915.168 321.567 917.066 319.669 917.066 317.338C917.066 315.375 915.729 313.735 913.916 313.26V247.86L974.094 213.122L974.634 212.819V143.989L1033.19 177.8V243.2C1031.38 243.675 1030.04 245.314 1030.04 247.278C1030.04 247.666 1030.11 248.033 1030.22 248.378L973.037 281.391L972.498 281.693V354.278L1034.29 318.611L1095.01 353.652L1155.73 318.611L1216.45 353.652L1276.09 319.216V383.364C1274.27 383.839 1272.94 385.478 1272.94 387.442C1272.94 389.772 1274.83 391.671 1277.16 391.671C1279.43 391.693 1281.33 389.794 1281.33 387.464ZM1336.72 351.797L1280.1 384.486C1279.58 383.968 1278.91 383.58 1278.18 383.386V317.986L1279.26 317.36L1336.74 284.175V351.797H1336.72ZM1217.46 214.093L1276.02 247.904V315.504L1217.46 281.693V214.093ZM1278.18 247.882L1336.74 214.071V281.672L1278.18 315.483V247.882ZM1336.72 211.59L1278.16 245.401V177.8L1336.72 143.989V211.59ZM1397.52 108.948V173.873C1395.71 174.348 1394.37 175.988 1394.37 177.951C1394.37 178.081 1394.39 178.21 1394.41 178.339L1338.98 210.338V142.759L1397.52 108.948ZM1278.26 38.8442L1336.82 72.6554V140.256L1278.26 106.445V38.8442ZM1217.46 146.211C1218.19 146.017 1218.86 145.65 1219.38 145.111L1276 177.8V245.401L1217.44 211.59V146.211H1217.46ZM1094.97 210.964L1036.41 177.153L1063.01 161.79L1094.97 143.342L1153.53 177.153L1126.92 192.516L1094.97 210.964ZM1035.33 111.149C1036.06 110.955 1036.73 110.588 1037.25 110.048L1092.79 142.112L1035.31 175.297V111.149H1035.33ZM1093.89 140.234L1038.33 108.15C1038.42 107.804 1038.5 107.437 1038.5 107.049C1038.5 106.661 1038.44 106.294 1038.33 105.949L1093.89 73.8637V140.234ZM1093.89 212.841V280.442L1038.33 248.357C1038.42 248.012 1038.5 247.645 1038.5 247.256C1038.5 245.293 1037.16 243.653 1035.35 243.178V179.03L1093.89 212.841ZM1035.33 251.356C1036.06 251.162 1036.73 250.773 1037.25 250.256L1092.79 282.319L1035.31 315.504V251.356H1035.33ZM1154.61 246.631L1096.05 280.442V212.841L1154.61 179.03V246.631ZM1156.76 37.5928L1215.32 3.78165V71.3823L1156.76 105.193V37.5928ZM1154.61 107.696V175.297L1096.05 141.486V73.8853L1154.61 107.696ZM1092.81 72.0081L1037.27 104.071C1036.75 103.554 1036.08 103.165 1035.35 102.971V38.8227L1092.81 72.0081ZM972.476 3.80322V71.4039L913.916 105.215V37.6144L972.476 3.80322ZM790.345 108.926V176.527L731.785 210.338V142.737L790.345 108.926ZM671.089 108.926L729.649 142.737V210.338L700.369 193.443L671.089 176.549V108.926ZM729.627 280.442L700.347 263.547L674.066 248.378C674.153 248.033 674.239 247.666 674.239 247.278C674.239 245.314 672.901 243.675 671.089 243.2V179.03L700.369 195.925L729.649 212.819V280.442H729.627ZM608.213 210.338L549.654 176.527V108.926L608.213 142.737V210.338ZM488.957 73.8853L547.517 107.696V175.297L488.957 141.486V73.8853ZM431.239 176.052L487.879 143.363L546.439 177.174L519.834 192.537L487.879 210.985L431.239 178.275C431.325 177.929 431.412 177.563 431.412 177.174C431.412 176.786 431.347 176.419 431.239 176.052ZM547.517 246.631L488.957 280.442V212.841L547.517 179.03V246.631ZM610.371 280.442V212.841L668.931 179.03V243.178C667.119 243.653 665.781 245.293 665.781 247.256C665.781 247.645 665.846 248.012 665.953 248.357L610.371 280.442ZM729.627 350.524L671.067 316.713V251.313C671.801 251.119 672.47 250.752 672.988 250.212L700.326 266.007L729.606 282.902V350.524H729.627ZM790.345 315.483L731.785 281.672V214.071L790.345 247.882V315.483ZM851.062 210.338L792.502 176.549V108.926L851.062 142.737V210.338ZM853.22 140.256V72.6338L911.78 38.8227V106.423L853.22 140.256ZM972.476 73.9068V141.486L913.916 175.297V107.696L972.476 73.9068ZM853.22 350.545V282.945L911.78 249.134V313.282C909.968 313.757 908.63 315.396 908.63 317.36C908.63 317.748 908.694 318.115 908.802 318.46L853.22 350.545ZM972.476 211.59L913.916 245.401V177.8L972.476 143.989V211.59ZM974.634 73.8853L1030.19 105.949C1030.11 106.294 1030.02 106.661 1030.02 107.049C1030.02 109.013 1031.36 110.652 1033.17 111.127V175.276L974.634 141.486V73.8853ZM974.634 282.945L1031.25 250.256C1031.77 250.773 1032.44 251.162 1033.17 251.356V316.756L974.612 350.567V282.945H974.634ZM1094.97 351.171L1036.41 317.36L1093.89 284.175L1094.97 283.549L1096.05 284.175L1153.53 317.36L1094.97 351.171ZM1157.84 317.36L1216.4 283.549L1274.96 317.36L1216.4 351.171L1157.84 317.36Z" fill="#FF4B57"/>
</svg>
