<?xml version="1.0" encoding="UTF-8" standalone="no" ?>
<!DOCTYPE svg PUBLIC "-//W3C//DTD SVG 1.1//EN" "http://www.w3.org/Graphics/SVG/1.1/DTD/svg11.dtd">
<svg xmlns="http://www.w3.org/2000/svg" xmlns:xlink="http://www.w3.org/1999/xlink" version="1.1" width="200" height="200" viewBox="0 0 200 200" xml:space="preserve">
<desc>Created with Fabric.js 4.6.0</desc>
<defs>
</defs>
<g transform="matrix(1 0 0 1 91.67 108.33)" id="5rfBCNoJ2OgC12YHl_djE"  >
<path style="stroke: rgb(222,175,99); stroke-width: 0; stroke-dasharray: none; stroke-linecap: butt; stroke-dashoffset: 0; stroke-linejoin: miter; stroke-miterlimit: 4; fill: rgb(0,0,0); fill-rule: nonzero; opacity: 1;" vector-effect="non-scaling-stroke"  transform=" translate(-91.56, -91.56)" d="M 16.65745 10.42253 C 16.65745 4.66633 21.32377 0 27.07998 0 L 172.6886 0 C 178.44480000000001 0 183.11113 4.66632 183.11113 10.42253 L 183.11113 156.03115 C 183.11113 161.78735 178.44481 166.45368 172.6886 166.45368 L 111.38964000000001 166.45368 C 111.90334000000001 167.80822 112.18458000000001 169.27684 112.18458000000001 170.81074999999998 C 112.18458000000001 177.60053 106.67404 183.11106999999998 99.88426000000001 183.11106999999998 C 93.09448 183.11106999999998 87.58394000000001 177.60053 87.58394000000001 170.81074999999998 C 87.58394000000001 169.27684 87.86518000000001 167.80821999999998 88.37888000000001 166.45368 L 27.079980000000006 166.45368 C 21.323780000000006 166.45368 16.657450000000004 161.78735999999998 16.657450000000004 156.03115 L 16.657450000000004 94.73216 C 15.302890000000005 95.24587 13.834250000000004 95.52713 12.300320000000005 95.52713 C 5.510540000000004 95.52713 5.329070518200751e-15 90.01659 5.329070518200751e-15 83.22681 C 5.329070518200751e-15 76.43703 5.510540000000005 70.92649 12.300320000000005 70.92649 C 13.834250000000004 70.92649 15.302890000000005 71.20774 16.657450000000004 71.72146000000001 z" stroke-linecap="round" />
</g>
</svg>