<?xml version="1.0" encoding="UTF-8" standalone="no" ?>
<!DOCTYPE svg PUBLIC "-//W3C//DTD SVG 1.1//EN" "http://www.w3.org/Graphics/SVG/1.1/DTD/svg11.dtd">
<svg xmlns="http://www.w3.org/2000/svg" xmlns:xlink="http://www.w3.org/1999/xlink" version="1.1" width="200" height="200" viewBox="0 0 200 200" xml:space="preserve">
<desc>Created with Fabric.js 4.6.0</desc>
<defs>
</defs>
<g transform="matrix(1 0 0 1 100 100)" id="Bmdfj3KiAiI1wg3lLU7C_"  >
<path style="stroke: rgb(222,175,99); stroke-width: 0; stroke-dasharray: none; stroke-linecap: butt; stroke-dashoffset: 0; stroke-linejoin: miter; stroke-miterlimit: 4; fill: rgb(0,0,0); fill-rule: nonzero; opacity: 1;" vector-effect="non-scaling-stroke"  transform=" translate(-83.23, -83.23)" d="M 0 10.42253 C 0 4.66633 4.66632 0 10.42253 0 L 72.29783 0 C 71.42158 1.69137 70.92649 3.61162 70.92649 5.64681 C 70.92649 12.43659 76.43703000000001 17.94713 83.22681 17.94713 C 90.01659000000001 17.94713 95.52713 12.436590000000002 95.52713 5.646810000000002 C 95.52713 3.611620000000002 95.03203 1.6913700000000023 94.15579 1.7763568394002505e-15 L 156.03116 1.7763568394002505e-15 C 161.78736 1.7763568394002505e-15 166.45369 4.666320000000002 166.45369 10.422530000000002 L 166.45369 72.29787 C 164.76230999999999 71.4216 162.84203 70.92649 160.80680999999998 70.92649 C 154.01702999999998 70.92649 148.50648999999999 76.43703000000001 148.50648999999999 83.22681 C 148.50648999999999 90.01659000000001 154.01702999999998 95.52713 160.80680999999998 95.52713 C 162.84203 95.52713 164.76229999999998 95.03202 166.45369 94.15575 L 166.45369 156.03115 C 166.45369 161.78735 161.78736999999998 166.45368 156.03116 166.45368 L 10.422539999999998 166.45368 C 4.666339999999998 166.45368 0.000009999999997845066 161.78735999999998 0.000009999999997845066 156.03115 z" stroke-linecap="round" />
</g>
</svg>