<?xml version="1.0" encoding="UTF-8" standalone="no" ?>
<!DOCTYPE svg PUBLIC "-//W3C//DTD SVG 1.1//EN" "http://www.w3.org/Graphics/SVG/1.1/DTD/svg11.dtd">
<svg xmlns="http://www.w3.org/2000/svg" xmlns:xlink="http://www.w3.org/1999/xlink" version="1.1" width="200" height="200" viewBox="0 0 200 200" xml:space="preserve">
<desc>Created with Fabric.js 4.6.0</desc>
<defs>
</defs>
<g transform="matrix(1 0 0 1 108.33 91.67)" id="AU6Fzis6cJ6o5HvrocrQb"  >
<path style="stroke: rgb(222,175,99); stroke-width: 0; stroke-dasharray: none; stroke-linecap: butt; stroke-dashoffset: 0; stroke-linejoin: miter; stroke-miterlimit: 4; fill: rgb(0,0,0); fill-rule: nonzero; opacity: 1;" vector-effect="non-scaling-stroke"  transform=" translate(-91.56, -91.56)" d="M 0 27.07998 C 0 21.32378 4.66632 16.657449999999997 10.42253 16.657449999999997 L 71.72145 16.657449999999997 C 71.20774 15.302889999999998 70.92648 13.834249999999997 70.92648 12.300319999999997 C 70.92648 5.510539999999997 76.43702 -1.7763568394002505e-15 83.2268 -1.7763568394002505e-15 C 90.01658 -1.7763568394002505e-15 95.52712 5.510539999999998 95.52712 12.300319999999997 C 95.52712 13.834249999999997 95.24587 15.302889999999998 94.73214999999999 16.657449999999997 L 156.03114 16.657449999999997 C 161.78734 16.657449999999997 166.45367 21.323769999999996 166.45367 27.07998 L 166.45367 88.37888000000001 C 167.80820999999997 87.86518000000001 169.27683 87.58394000000001 170.81073999999998 87.58394000000001 C 177.60052 87.58394000000001 183.11105999999998 93.09448000000002 183.11105999999998 99.88426000000001 C 183.11105999999998 106.67404000000002 177.60052 112.18458000000001 170.81073999999998 112.18458000000001 C 169.27683 112.18458000000001 167.80820999999997 111.90334000000001 166.45367 111.38964000000001 L 166.45367 172.6886 C 166.45367 178.44480000000001 161.78734999999998 183.11113 156.03114 183.11113 L 10.422519999999992 183.11113 C 4.666319999999992 183.11113 -0.000010000000008503207 178.44481 -0.000010000000008503207 172.6886 z" stroke-linecap="round" />
</g>
</svg>