<?xml version="1.0" encoding="UTF-8" standalone="no" ?>
<!DOCTYPE svg PUBLIC "-//W3C//DTD SVG 1.1//EN" "http://www.w3.org/Graphics/SVG/1.1/DTD/svg11.dtd">
<svg xmlns="http://www.w3.org/2000/svg" xmlns:xlink="http://www.w3.org/1999/xlink" version="1.1" width="200" height="200" viewBox="0 0 200 200" xml:space="preserve">
<desc>Created with Fabric.js 4.6.0</desc>
<defs>
</defs>
<g transform="matrix(1 0 0 1 100 100)" id="0Y-4SS6_5zVDa6k4cCfZb"  >
<path style="stroke: rgb(222,175,99); stroke-width: 0; stroke-dasharray: none; stroke-linecap: butt; stroke-dashoffset: 0; stroke-linejoin: miter; stroke-miterlimit: 4; fill: rgb(0,0,0); fill-rule: nonzero; opacity: 1;" vector-effect="non-scaling-stroke"  transform=" translate(-83.23, -83.23)" d="M 0 10.42253 C 0 4.66633 4.66632 0 10.42253 0 L 156.03115 0 C 161.78735 0 166.45368 4.66632 166.45368 10.42253 L 166.45368 72.31871 C 164.75261 71.42949 162.81811 70.92654 160.76685999999998 70.92654 C 153.97707999999997 70.92654 148.46653999999998 76.43708000000001 148.46653999999998 83.22686 C 148.46653999999998 90.01664 153.97707999999997 95.52718 160.76685999999998 95.52718 C 162.81811 95.52718 164.75260999999998 95.02423 166.45368 94.13501000000001 L 166.45368 156.03115000000003 C 166.45368 161.78735000000003 161.78735999999998 166.45368000000002 156.03115 166.45368000000002 L 94.20500999999999 166.45368000000002 C 95.09422999999998 164.75261000000003 95.59717999999998 162.81811000000002 95.59717999999998 160.76686 C 95.59717999999998 153.97708 90.08663999999997 148.46654 83.29685999999998 148.46654 C 76.50707999999997 148.46654 70.99653999999998 153.97708 70.99653999999998 160.76686 C 70.99653999999998 162.81811000000002 71.49948999999998 164.75261 72.38870999999997 166.45368000000002 L 10.422529999999973 166.45368000000002 C 4.666329999999974 166.45368000000002 -2.6645352591003757e-14 161.78736 -2.6645352591003757e-14 156.03115000000003 z" stroke-linecap="round" />
</g>
</svg>