<?xml version="1.0" encoding="UTF-8" standalone="no" ?>
<!DOCTYPE svg PUBLIC "-//W3C//DTD SVG 1.1//EN" "http://www.w3.org/Graphics/SVG/1.1/DTD/svg11.dtd">
<svg xmlns="http://www.w3.org/2000/svg" xmlns:xlink="http://www.w3.org/1999/xlink" version="1.1" width="200" height="200" viewBox="0 0 200 200" xml:space="preserve">
<desc>Created with Fabric.js 4.6.0</desc>
<defs>
</defs>
<g transform="matrix(1 0 0 1 108.33 100)" id="FnHTut1Z5ELi7iEJj_OIx"  >
<path style="stroke: rgb(216,43,198); stroke-width: 0; stroke-dasharray: none; stroke-linecap: butt; stroke-dashoffset: 0; stroke-linejoin: miter; stroke-miterlimit: 4; fill: #dd4a3a; fill-rule: nonzero; opacity: 1;" vector-effect="non-scaling-stroke"  transform=" translate(-91.55, -83.23)" d="M 170.80681 70.92649 C 177.59659000000002 70.92649 183.10713 76.43703000000001 183.10713 83.22681 C 183.10713 90.01659000000001 177.59659000000002 95.52713 170.80681 95.52713 C 169.27439 95.52713 167.80713 95.24643 166.45368000000002 94.73367999999999 L 166.45368000000002 156.03115 C 166.45368000000002 161.78735 161.78736 166.45368 156.03115000000003 166.45368 L 10.422530000000023 166.45368 C 4.666330000000023 166.45368 2.3092638912203256e-14 161.78735999999998 2.3092638912203256e-14 156.03115 L 2.3092638912203256e-14 94.15781999999999 C 1.690410000000023 95.03278999999999 3.609260000000023 95.52711999999998 5.642870000000023 95.52711999999998 C 12.432650000000024 95.52711999999998 17.943190000000023 90.01657999999998 17.943190000000023 83.22679999999998 C 17.943190000000023 76.43701999999999 12.432650000000024 70.92647999999998 5.642870000000023 70.92647999999998 C 3.6092600000000234 70.92647999999998 1.6904100000000235 71.42080999999999 2.3092638912203256e-14 72.29577999999998 L 2.3092638912203256e-14 10.42252999999998 C 2.3092638912203256e-14 4.666329999999981 4.666320000000023 -1.9539925233402755e-14 10.422530000000023 -1.9539925233402755e-14 L 156.03115000000003 -1.9539925233402755e-14 C 161.78735000000003 -1.9539925233402755e-14 166.45368000000002 4.66631999999998 166.45368000000002 10.42252999999998 L 166.45368000000002 71.71992999999998 C 167.80713000000003 71.20717999999998 169.27439 70.92647999999997 170.80681 70.92647999999997 z" stroke-linecap="round" />
</g>
</svg>