<svg width="200" height="200" viewBox="0 0 200 200" fill="none" xmlns="http://www.w3.org/2000/svg">
<path d="M183.23 27.1925C183.23 21.4363 178.564 16.77 172.807 16.77H110.864C111.739 18.4604 112.234 20.3793 112.234 22.4129C112.234 29.2027 106.723 34.7132 99.9332 34.7132C93.1434 34.7132 87.6329 29.2027 87.6329 22.4129C87.6329 20.3793 88.1272 18.4604 89.0022 16.77H27.1989C21.4427 16.77 16.7763 21.4363 16.7763 27.1925V88.4914C15.4218 87.9777 13.9532 87.6965 12.4193 87.6965C5.62947 87.6965 0.118927 93.207 0.118927 99.9968C0.118927 106.787 5.62947 112.297 12.4193 112.297C13.9532 112.297 15.4218 112.016 16.7763 111.502V172.801C16.7763 178.557 21.4426 183.224 27.1989 183.224H172.807C178.564 183.224 183.23 178.557 183.23 172.801L183.23 27.1925Z" fill="#eeeeee"/>
</svg>
