<svg width="200" height="200" viewBox="0 0 200 200" fill="none" xmlns="http://www.w3.org/2000/svg">
<path d="M183.23 27.19C183.23 21.4338 178.564 16.7674 172.807 16.7674H111.509C112.022 15.4129 112.304 13.9442 112.304 12.4103C112.304 5.62052 106.793 0.109985 100.003 0.109985C93.2134 0.109985 87.7029 5.62052 87.7029 12.4103C87.7029 13.9442 87.9841 15.4129 88.4978 16.7674H27.1989C21.4427 16.7674 16.7763 21.4338 16.7763 27.19V172.799C16.7763 178.555 21.4427 183.221 27.1989 183.221H172.807C178.564 183.221 183.23 178.555 183.23 172.799V110.923C181.539 111.799 179.618 112.295 177.583 112.295C170.793 112.295 165.283 106.784 165.283 99.9942C165.283 93.2045 170.793 87.6939 177.583 87.6939C179.618 87.6939 181.539 88.189 183.23 89.0653L183.23 27.19Z" fill="#ff4d58"/>
</svg>
