<?xml version="1.0" encoding="UTF-8" standalone="no" ?>
<!DOCTYPE svg PUBLIC "-//W3C//DTD SVG 1.1//EN" "http://www.w3.org/Graphics/SVG/1.1/DTD/svg11.dtd">
<svg xmlns="http://www.w3.org/2000/svg" xmlns:xlink="http://www.w3.org/1999/xlink" version="1.1" width="200" height="200" viewBox="0 0 200 200" xml:space="preserve">
<desc>Created with Fabric.js 4.6.0</desc>
<defs>
</defs>
<g transform="matrix(1 0 0 1 100 99.97)" id="JNT0op8jXdQETGBq8IlsH"  >
<path style="stroke: rgb(216,43,198); stroke-width: 0; stroke-dasharray: none; stroke-linecap: butt; stroke-dashoffset: 0; stroke-linejoin: miter; stroke-miterlimit: 4; fill: rgb(0,0,0); fill-rule: nonzero; opacity: 1;" vector-effect="non-scaling-stroke"  transform=" translate(-99.84, -99.88)" d="M 99.84032 0 C 106.6301 0 112.14064 5.51054 112.14064 12.30032 C 112.14064 13.844069999999999 111.85578000000001 15.3217 111.33578 16.68346 L 172.64461 16.68346 C 178.40081 16.68346 183.06714 21.34978 183.06714 27.10599 L 183.06714 88.38839 C 184.4095 87.8852 185.86296 87.61 187.38031999999998 87.61 C 194.1701 87.61 199.68063999999998 93.12054 199.68063999999998 99.91032 C 199.68063999999998 106.70009999999999 194.1701 112.21064 187.38031999999998 112.21064 C 185.86296 112.21064 184.40949999999998 111.93543 183.06714 111.43225 L 183.06714 172.71461 C 183.06714 178.47081 178.40081999999998 183.13714 172.64461 183.13714 L 111.43225000000001 183.13714 C 111.93544000000001 184.4795 112.21064000000001 185.93295999999998 112.21064000000001 187.45031999999998 C 112.21064000000001 194.24009999999998 106.7001 199.75063999999998 99.91032000000001 199.75063999999998 C 93.12054 199.75063999999998 87.61000000000001 194.24009999999998 87.61000000000001 187.45031999999998 C 87.61000000000001 185.93295999999998 87.88521000000001 184.47949999999997 88.38839000000002 183.13714 L 27.035990000000012 183.13714 C 21.279790000000013 183.13714 16.61346000000001 178.47081999999997 16.61346000000001 172.71461 L 16.61346000000001 111.43225999999999 C 15.27111000000001 111.93543999999999 13.81766000000001 112.21063999999998 12.30032000000001 112.21063999999998 C 5.5105400000000095 112.21063999999998 1.0658141036401503e-14 106.70009999999998 1.0658141036401503e-14 99.91031999999998 C 1.0658141036401503e-14 93.12053999999998 5.51054000000001 87.60999999999999 12.30032000000001 87.60999999999999 C 13.81766000000001 87.60999999999999 15.27112000000001 87.88519999999998 16.61346000000001 88.38837999999998 L 16.61346000000001 27.105989999999984 C 16.61346000000001 21.349789999999985 21.27978000000001 16.683459999999982 27.035990000000012 16.683459999999982 L 88.34486000000001 16.683459999999982 C 87.82486000000002 15.321699999999982 87.54 13.844069999999983 87.54 12.300319999999981 C 87.54 5.510539999999981 93.05054000000001 -1.7763568394002505e-14 99.84032 -1.7763568394002505e-14 z" stroke-linecap="round" />
</g>
</svg>