<?xml version="1.0" encoding="UTF-8" standalone="no" ?>
<!DOCTYPE svg PUBLIC "-//W3C//DTD SVG 1.1//EN" "http://www.w3.org/Graphics/SVG/1.1/DTD/svg11.dtd">
<svg xmlns="http://www.w3.org/2000/svg" xmlns:xlink="http://www.w3.org/1999/xlink" version="1.1" width="200" height="200" viewBox="0 0 200 200" xml:space="preserve">
<desc>Created with Fabric.js 4.6.0</desc>
<defs>
</defs>
<g transform="matrix(1 0 0 1 100 100)" id="hrFO9uiEqvt3t8DGgNcdl"  >
<path style="stroke: rgb(222,175,99); stroke-width: 0; stroke-dasharray: none; stroke-linecap: butt; stroke-dashoffset: 0; stroke-linejoin: miter; stroke-miterlimit: 4; fill: rgb(0,0,0); fill-rule: nonzero; opacity: 1;" vector-effect="non-scaling-stroke"  transform=" translate(-83.31, -83.31)" d="M 0 10.42253 C 0 4.66633 4.66632 0 10.42253 0 L 72.48013 0 C 71.58098 1.70283 71.07183 3.643 71.07183 5.70138 C 71.07183 12.45504 76.55306 17.93628 83.30673 17.93628 C 90.06039 17.93628 95.54163 12.45505 95.54163 5.70138 C 95.54163 3.6430100000000003 95.03247999999999 1.7028300000000005 94.13333 0 L 156.1909 0 C 161.9471 0 166.61343 4.66632 166.61343 10.42253 L 166.61343 72.44074 C 164.89312999999999 71.52527 162.93012 71.00641 160.84667 71.00641 C 154.05688999999998 71.00641 148.54635 76.51695000000001 148.54635 83.30673 C 148.54635 90.09651 154.05688999999998 95.60705 160.84667 95.60705 C 162.93013 95.60705 164.89312999999999 95.08819 166.61343 94.17272 L 166.61343 156.1909 C 166.61343 161.9471 161.94710999999998 166.61343 156.1909 166.61343 L 94.23814 166.61343 C 95.15361 164.89312999999999 95.67247 162.93012 95.67247 160.84667 C 95.67247 154.05688999999998 90.16193 148.54635 83.37215 148.54635 C 76.58237 148.54635 71.07183 154.05688999999998 71.07183 160.84667 C 71.07183 162.93013 71.59069000000001 164.89312999999999 72.50616000000001 166.61343 L 10.422530000000009 166.61343 C 4.666330000000009 166.61343 8.881784197001252e-15 161.94710999999998 8.881784197001252e-15 156.1909 L 8.881784197001252e-15 94.17269999999999 C 1.7203100000000089 95.08818 3.683330000000009 95.60704999999999 5.766800000000009 95.60704999999999 C 12.55658000000001 95.60704999999999 18.06712000000001 90.09650999999998 18.06712000000001 83.30672999999999 C 18.06712000000001 76.51694999999998 12.556580000000011 71.00640999999999 5.766800000000011 71.00640999999999 C 3.6833300000000104 71.00640999999999 1.7203100000000102 71.52528 1.0658141036401503e-14 72.44075999999998 z" stroke-linecap="round" />
</g>
</svg>