<?xml version="1.0" encoding="UTF-8" standalone="no" ?>
<!DOCTYPE svg PUBLIC "-//W3C//DTD SVG 1.1//EN" "http://www.w3.org/Graphics/SVG/1.1/DTD/svg11.dtd">
<svg xmlns="http://www.w3.org/2000/svg" xmlns:xlink="http://www.w3.org/1999/xlink" version="1.1" width="200" height="200" viewBox="0 0 200 200" xml:space="preserve">
<desc>Created with Fabric.js 4.6.0</desc>
<defs>
</defs>
<g transform="matrix(1 0 0 1 100 100)" id="Z0EIGBiQht6vAiyRk-QQM"  >
<path style="stroke: rgb(222,175,99); stroke-width: 0; stroke-dasharray: none; stroke-linecap: butt; stroke-dashoffset: 0; stroke-linejoin: miter; stroke-miterlimit: 4; fill: rgb(0,0,0); fill-rule: nonzero; opacity: 1;" vector-effect="non-scaling-stroke"  transform=" translate(-83.23, -83.23)" d="M 0 10.42253 C 0 4.66633 4.66632 0 10.42253 0 L 72.30584999999999 0 C 71.42460999999999 1.69512 70.92648999999999 3.62087 70.92648999999999 5.66226 C 70.92648999999999 12.45204 76.43703 17.96258 83.22680999999999 17.96258 C 90.01658999999998 17.96258 95.52712999999999 12.45204 95.52712999999999 5.66226 C 95.52712999999999 3.62087 95.02900999999999 1.6951199999999997 94.14776999999998 0 L 156.03115999999997 0 C 161.78735999999998 0 166.45368999999997 4.66632 166.45368999999997 10.42253 L 166.45368999999997 156.03115 C 166.45368999999997 161.78735 161.78736999999995 166.45368 156.03115999999997 166.45368 L 94.14773999999997 166.45368 C 95.02899999999997 164.75853999999998 95.52713999999997 162.83276999999998 95.52713999999997 160.79135 C 95.52713999999997 154.00157 90.01659999999997 148.49103 83.22681999999998 148.49103 C 76.43703999999997 148.49103 70.92649999999998 154.00157 70.92649999999998 160.79135 C 70.92649999999998 162.83276 71.42462999999998 164.75853999999998 72.30589999999998 166.45368 L 10.42254999999998 166.45368 C 4.66634999999998 166.45368 0.00001999999997970292 161.78735999999998 0.00001999999997970292 156.03115 z" stroke-linecap="round" />
</g>
</svg>