<?xml version="1.0" encoding="UTF-8" standalone="no" ?>
<!DOCTYPE svg PUBLIC "-//W3C//DTD SVG 1.1//EN" "http://www.w3.org/Graphics/SVG/1.1/DTD/svg11.dtd">
<svg xmlns="http://www.w3.org/2000/svg" xmlns:xlink="http://www.w3.org/1999/xlink" version="1.1" width="200" height="200" viewBox="0 0 200 200" xml:space="preserve">
<desc>Created with Fabric.js 4.6.0</desc>
<defs>
</defs>
<g transform="matrix(1 0 0 1 108.33 108.33)" id="iWiyNCyFLuK5C2ZpspuK-"  >
<path style="stroke: rgb(222,175,99); stroke-width: 0; stroke-dasharray: none; stroke-linecap: butt; stroke-dashoffset: 0; stroke-linejoin: miter; stroke-miterlimit: 4; fill: rgb(0,0,0); fill-rule: nonzero; opacity: 1;" vector-effect="non-scaling-stroke"  transform=" translate(-91.56, -91.56)" d="M 0 10.42253 C 0 4.66633 4.66632 0 10.42253 0 L 156.03115 0 C 161.78735 0 166.45368 4.66632 166.45368 10.42253 L 166.45368 71.72143 C 167.80822 71.20773 169.27684 70.92649 170.81074999999998 70.92649 C 177.60053 70.92649 183.11106999999998 76.43703000000001 183.11106999999998 83.22681 C 183.11106999999998 90.01659000000001 177.60053 95.52713 170.81074999999998 95.52713 C 169.27684 95.52713 167.80821999999998 95.24589 166.45368 94.73219 L 166.45368 156.03115 C 166.45368 161.78735 161.78735999999998 166.45368 156.03115 166.45368 L 94.80219 166.45368 C 95.31589 167.80822 95.59712999999999 169.27684 95.59712999999999 170.81074999999998 C 95.59712999999999 177.60053 90.08658999999999 183.11106999999998 83.29681 183.11106999999998 C 76.50702999999999 183.11106999999998 70.99649 177.60053 70.99649 170.81074999999998 C 70.99649 169.27684 71.27772999999999 167.80821999999998 71.79142999999999 166.45368 L 10.422529999999995 166.45368 C 4.666329999999995 166.45368 -5.329070518200751e-15 161.78735999999998 -5.329070518200751e-15 156.03115 z" stroke-linecap="round" />
</g>
</svg>