<?xml version="1.0" encoding="UTF-8" standalone="no" ?>
<!DOCTYPE svg PUBLIC "-//W3C//DTD SVG 1.1//EN" "http://www.w3.org/Graphics/SVG/1.1/DTD/svg11.dtd">
<svg xmlns="http://www.w3.org/2000/svg" xmlns:xlink="http://www.w3.org/1999/xlink" version="1.1" width="200" height="200" viewBox="0 0 200 200" xml:space="preserve">
<desc>Created with Fabric.js 4.6.0</desc>
<defs>
</defs>
<g transform="matrix(1 0 0 1 91.67 100)" id="FwGtOC-_WYKwFWos8BNeI"  >
<path style="stroke: rgb(216,43,198); stroke-width: 0; stroke-dasharray: none; stroke-linecap: butt; stroke-dashoffset: 0; stroke-linejoin: miter; stroke-miterlimit: 4; fill: rgb(0,0,0); fill-rule: nonzero; opacity: 1;" vector-effect="non-scaling-stroke"  transform=" translate(-91.55, -83.23)" d="M 12.30032 70.92648 C 13.832759999999999 70.92648 15.30004 71.20719 16.653509999999997 71.71995 L 16.653509999999997 10.422529999999995 C 16.653509999999997 4.666329999999995 21.319829999999996 -5.329070518200751e-15 27.07604 -5.329070518200751e-15 L 172.68466 -5.329070518200751e-15 C 178.44086000000001 -5.329070518200751e-15 183.10719 4.6663199999999945 183.10719 10.422529999999995 L 183.10719 72.29581999999999 C 181.41677 71.42083 179.49789 70.92648 177.46426 70.92648 C 170.67448 70.92648 165.16394 76.43702 165.16394 83.2268 C 165.16394 90.01658 170.67448 95.52712 177.46426 95.52712 C 179.49788999999998 95.52712 181.41676999999999 95.03278 183.10719 94.15778 L 183.10719 156.03114 C 183.10719 161.78734 178.44087 166.45367 172.68466 166.45367 L 27.076040000000006 166.45367 C 21.319840000000006 166.45367 16.653510000000004 161.78734999999998 16.653510000000004 156.03114 L 16.653510000000004 94.73364999999998 C 15.300040000000005 95.24641999999999 13.832760000000004 95.52711999999998 12.300320000000005 95.52711999999998 C 5.510540000000004 95.52711999999998 5.329070518200751e-15 90.01657999999998 5.329070518200751e-15 83.22679999999998 C 5.329070518200751e-15 76.43701999999999 5.510540000000005 70.92647999999998 12.300320000000005 70.92647999999998 z" stroke-linecap="round" />
</g>
</svg>