<?xml version="1.0" encoding="UTF-8" standalone="no" ?>
<!DOCTYPE svg PUBLIC "-//W3C//DTD SVG 1.1//EN" "http://www.w3.org/Graphics/SVG/1.1/DTD/svg11.dtd">
<svg xmlns="http://www.w3.org/2000/svg" xmlns:xlink="http://www.w3.org/1999/xlink" version="1.1" width="200" height="200" viewBox="0 0 200 200" xml:space="preserve">
<desc>Created with Fabric.js 4.6.0</desc>
<defs>
</defs>
<g transform="matrix(1 0 0 1 100 91.67)" id="_c0LGku_hHUU2OzNItMKr"  >
<path style="stroke: rgb(222,175,99); stroke-width: 0; stroke-dasharray: none; stroke-linecap: butt; stroke-dashoffset: 0; stroke-linejoin: miter; stroke-miterlimit: 4; fill: rgb(0,0,0); fill-rule: nonzero; opacity: 1;" vector-effect="non-scaling-stroke"  transform=" translate(-83.23, -91.56)" d="M 0.00001 27.07998 C 0.00001 21.32378 4.666329999999999 16.657449999999997 10.42254 16.657449999999997 L 71.72146000000001 16.657449999999997 C 71.20775 15.302889999999998 70.92649 13.834249999999997 70.92649 12.300319999999997 C 70.92649 5.510539999999997 76.43703000000001 -1.7763568394002505e-15 83.22681 -1.7763568394002505e-15 C 90.01659000000001 -1.7763568394002505e-15 95.52713 5.510539999999998 95.52713 12.300319999999997 C 95.52713 13.834249999999997 95.24588 15.302889999999998 94.73216 16.657449999999997 L 156.03115 16.657449999999997 C 161.78735 16.657449999999997 166.45368 21.323769999999996 166.45368 27.07998 L 166.45368 172.6886 C 166.45368 178.44480000000001 161.78735999999998 183.11113 156.03115 183.11113 L 10.422529999999995 183.11113 C 4.666329999999995 183.11113 -5.329070518200751e-15 178.44481 -5.329070518200751e-15 172.6886 L -5.329070518200751e-15 110.81324000000001 C 1.6913699999999947 111.68948 3.6116199999999945 112.18458000000001 5.6467999999999945 112.18458000000001 C 12.436579999999996 112.18458000000001 17.947119999999995 106.67404 17.947119999999995 99.88426000000001 C 17.947119999999995 93.09448 12.436579999999996 87.58394000000001 5.646799999999995 87.58394000000001 C 3.6116199999999954 87.58394000000001 1.6913599999999955 88.07904 -4.440892098500626e-15 88.95528000000002 z" stroke-linecap="round" />
</g>
</svg>