<?xml version="1.0" encoding="UTF-8" standalone="no" ?>
<!DOCTYPE svg PUBLIC "-//W3C//DTD SVG 1.1//EN" "http://www.w3.org/Graphics/SVG/1.1/DTD/svg11.dtd">
<svg xmlns="http://www.w3.org/2000/svg" xmlns:xlink="http://www.w3.org/1999/xlink" version="1.1" width="200" height="200" viewBox="0 0 200 200" xml:space="preserve">
<desc>Created with Fabric.js 4.6.0</desc>
<defs>
</defs>
<g transform="matrix(1 0 0 1 108.33 100)" id="YTdlHnMklzQ-em4_afOuZ"  >
<path style="stroke: rgb(222,175,99); stroke-width: 0; stroke-dasharray: none; stroke-linecap: butt; stroke-dashoffset: 0; stroke-linejoin: miter; stroke-miterlimit: 4; fill: rgb(0,0,0); fill-rule: nonzero; opacity: 1;" vector-effect="non-scaling-stroke"  transform=" translate(-91.56, -83.23)" d="M 0 10.42253 C 0 4.66633 4.66632 0 10.42253 0 L 72.36579 0 C 71.49082 1.69041 70.99649000000001 3.60926 70.99649000000001 5.64287 C 70.99649000000001 12.43265 76.50703000000001 17.94319 83.29681000000001 17.94319 C 90.08659 17.94319 95.59713 12.432650000000002 95.59713 5.642870000000002 C 95.59713 3.609260000000002 95.1028 1.6904100000000022 94.22783000000001 1.7763568394002505e-15 L 156.03115000000003 1.7763568394002505e-15 C 161.78735000000003 1.7763568394002505e-15 166.45368000000002 4.666320000000002 166.45368000000002 10.422530000000002 L 166.45368000000002 71.72143 C 167.80822 71.20773 169.27684000000002 70.92649 170.81075 70.92649 C 177.60053000000002 70.92649 183.11107 76.43703000000001 183.11107 83.22681 C 183.11107 90.01659000000001 177.60053000000002 95.52713 170.81075 95.52713 C 169.27684000000002 95.52713 167.80822 95.24589 166.45368000000002 94.73219 L 166.45368000000002 156.03115 C 166.45368000000002 161.78735 161.78736 166.45368 156.03115000000003 166.45368 L 10.422530000000023 166.45368 C 4.666330000000023 166.45368 2.3092638912203256e-14 161.78735999999998 2.3092638912203256e-14 156.03115 z" stroke-linecap="round" />
</g>
</svg>